<svg width="1024" height="1024" viewBox="0 0 1024 1024" fill="none" xmlns="http://www.w3.org/2000/svg">
<g clip-path="url(#clip0_1_33)">
<rect width="1024" height="1024" fill="white"/>
<rect width="1024" height="1024" fill="url(#paint0_linear_1_33)"/>
<mask id="path-1-outside-1_1_33" maskUnits="userSpaceOnUse" x="163.757" y="157.733" width="690" height="705" fill="black">
<rect fill="white" x="163.757" y="157.733" width="690" height="705"/>
<path fill-rule="evenodd" clip-rule="evenodd" d="M217.925 369.112C192.526 441.026 202.108 509.464 210.538 545.112C197.597 559.862 192.118 581.537 194.181 605.166C197.741 645.952 228.079 684.158 269.045 680.582C275.376 680.029 280.973 678.579 285.899 676.372C312.547 762.288 377.501 832.817 508.551 832.817C639.6 832.817 704.554 762.287 731.202 676.372C736.129 678.579 741.726 680.029 748.057 680.582C789.023 684.158 819.361 645.952 822.921 605.166C825.194 579.128 818.309 555.462 802.373 540.821C810.51 504.154 818.417 438.238 794.003 369.112C757.12 264.682 660.521 187.733 505.964 187.733C351.406 187.733 254.808 264.682 217.925 369.112Z"/>
</mask>
<path d="M210.538 545.112L232.989 564.808L243.147 553.229L239.603 538.239L210.538 545.112ZM217.925 369.112L246.087 379.058L246.087 379.058L217.925 369.112ZM194.181 605.166L164.427 607.763L164.427 607.763L194.181 605.166ZM269.045 680.582L271.642 710.335L271.642 710.335L269.045 680.582ZM285.899 676.372L314.425 667.524L304.442 635.335L273.687 649.116L285.899 676.372ZM731.202 676.372L743.415 649.116L712.66 635.335L702.676 667.524L731.202 676.372ZM748.057 680.582L745.46 710.335L745.46 710.335L748.057 680.582ZM822.921 605.166L793.168 602.569L793.168 602.569L822.921 605.166ZM802.373 540.821L773.216 534.35L769.485 551.163L782.167 562.814L802.373 540.821ZM794.003 369.112L822.165 359.166L822.165 359.166L794.003 369.112ZM505.964 187.733L505.964 217.6L505.964 217.6L505.964 187.733ZM239.603 538.239C231.83 505.371 223.369 443.38 246.087 379.058L189.763 359.166C161.683 438.671 172.386 513.558 181.472 551.985L239.603 538.239ZM223.934 602.569C222.358 584.51 226.901 571.747 232.989 564.808L188.086 525.415C168.293 547.977 161.878 578.564 164.427 607.763L223.934 602.569ZM266.448 650.828C256.729 651.677 247.536 647.896 239.501 639.218C231.155 630.205 225.177 616.812 223.934 602.569L164.427 607.763C166.744 634.306 177.715 660.409 195.67 679.801C213.936 699.529 240.395 713.063 271.642 710.335L266.448 650.828ZM273.687 649.116C272.063 649.844 269.752 650.54 266.447 650.828L271.642 710.335C280.999 709.519 289.883 707.315 298.112 703.627L273.687 649.116ZM508.551 802.951C448.637 802.951 406.452 786.945 376.577 763.368C346.46 739.6 326.423 706.206 314.425 667.524L257.373 685.219C272.023 732.453 297.788 777.282 339.572 810.258C381.598 843.425 437.415 862.684 508.551 862.684V802.951ZM702.676 667.524C690.678 706.206 670.642 739.6 640.525 763.368C610.649 786.945 568.464 802.951 508.551 802.951V862.684C579.687 862.684 635.504 843.424 677.53 810.258C719.314 777.282 745.078 732.453 759.728 685.219L702.676 667.524ZM750.655 650.828C747.35 650.54 745.039 649.844 743.415 649.116L718.989 703.627C727.219 707.315 736.103 709.519 745.46 710.335L750.655 650.828ZM793.168 602.569C791.925 616.812 785.947 630.205 777.601 639.218C769.566 647.896 760.374 651.677 750.655 650.828L745.46 710.335C776.707 713.063 803.166 699.529 821.432 679.801C839.387 660.409 850.358 634.306 852.675 607.763L793.168 602.569ZM782.167 562.814C789.205 569.28 794.916 582.545 793.168 602.569L852.675 607.763C855.473 575.711 847.413 541.643 822.58 518.827L782.167 562.814ZM765.841 379.058C787.668 440.859 780.721 500.529 773.216 534.35L831.531 547.291C840.299 507.778 849.166 435.617 822.165 359.166L765.841 379.058ZM505.964 217.6C649.062 217.6 733.561 287.661 765.841 379.058L822.165 359.166C780.679 241.703 671.98 157.867 505.964 157.867L505.964 217.6ZM246.087 379.058C278.367 287.661 362.865 217.6 505.964 217.6L505.964 157.867C339.948 157.867 231.249 241.703 189.763 359.166L246.087 379.058Z" fill="black" mask="url(#path-1-outside-1_1_33)"/>
<path d="M789.443 564.244H505.963H222.483C221.581 561.487 220.322 557.408 218.919 552.181C216.101 541.683 212.708 526.577 210.445 508.255C205.915 471.574 205.944 422.251 223.959 371.243C259.856 269.606 353.861 194.133 505.963 194.133C658.065 194.133 752.071 269.606 787.967 371.243C805.982 422.251 806.012 471.574 801.481 508.255C799.219 526.577 795.825 541.683 793.008 552.181C791.605 557.408 790.346 561.487 789.443 564.244Z" fill="#F27522" stroke="black" stroke-width="12.8"/>
<path d="M310.334 595.622C312.066 615.47 310.347 634.698 303.754 649.116C297.35 663.12 286.399 672.643 268.488 674.206C250.311 675.793 234.335 668.181 222.281 655.162C210.161 642.071 202.221 623.685 200.556 604.609C198.868 585.274 202.562 567.867 210.987 555.066C219.293 542.447 232.48 533.834 251.053 532.213C269.535 530.599 283.18 536.934 292.797 548.011C302.625 559.332 308.628 576.088 310.334 595.622Z" fill="white" stroke="black" stroke-width="12.8"/>
<path d="M256.725 626.828C243.673 627.967 234.007 615.794 232.872 602.799C231.738 589.804 232.872 572.853 250.816 577.523C267.24 587.237 250.816 606.624 238.472 595.993" stroke="black" stroke-width="12.8"/>
<path d="M310.334 595.622C312.066 615.47 310.347 634.698 303.754 649.116C297.35 663.12 286.399 672.643 268.488 674.206C250.311 675.793 234.335 668.181 222.281 655.162C210.161 642.071 202.221 623.685 200.556 604.609C198.868 585.274 202.562 567.867 210.987 555.066C219.293 542.447 232.48 533.834 251.053 532.213C269.535 530.599 283.18 536.934 292.797 548.011C302.625 559.332 308.628 576.088 310.334 595.622Z" fill="#F5C885" fill-opacity="0.67" stroke="black" stroke-width="12.8"/>
<path d="M256.725 626.828C243.673 627.967 234.007 615.794 232.872 602.799C231.738 589.804 232.872 572.853 250.816 577.523C267.24 587.237 250.816 606.624 238.472 595.993" stroke="black" stroke-width="12.8"/>
<path d="M706.767 595.622C705.034 615.47 706.754 634.698 713.347 649.116C719.751 663.12 730.702 672.643 748.613 674.206C766.789 675.793 782.765 668.181 794.819 655.162C806.94 642.071 814.88 623.685 816.545 604.609C818.233 585.274 814.539 567.867 806.113 555.066C797.808 542.447 784.621 533.834 766.047 532.213C747.565 530.599 733.92 536.934 724.303 548.011C714.475 559.332 708.472 576.088 706.767 595.622Z" fill="#F8DAAD" stroke="black" stroke-width="12.8"/>
<path d="M760.375 626.828C773.428 627.967 783.094 615.794 784.228 602.799C785.363 589.804 784.228 572.853 766.285 577.523C749.861 587.237 766.285 606.624 778.629 595.993" stroke="black" stroke-width="12.8"/>
<path d="M740.176 567.194C740.176 629.32 726.942 694.224 691.575 743.424C656.453 792.281 598.97 826.417 508.55 826.417C418.13 826.417 360.647 792.281 325.525 743.424C290.158 694.224 276.924 629.32 276.924 567.194C276.924 445.252 380.356 345.918 508.55 345.918C636.745 345.918 740.176 445.252 740.176 567.194Z" fill="#F8DAAD" stroke="black" stroke-width="12.8"/>
<path d="M407.078 442.462C429.584 528.382 492.854 591.619 487.888 555.357C481.227 506.729 468.607 434.422 509.413 394.712C540.276 364.678 506.47 292.239 471.467 305.021C465.362 298.662 390.864 342.026 370.269 348.45C363.438 338.048 315.728 353.3 294.946 360.56C269.898 365.345 237.753 429.445 237.753 429.445C225.518 555.017 330.695 608.06 326.617 572.605C294.946 532.698 290.36 524.936 300.744 466.292C318.82 526.661 368.005 582.092 365.425 559.669C355.076 517.411 343.003 469.034 349.04 429.445C362.838 504.474 432.754 583.556 430.106 559.669C427.823 539.067 398.197 488.951 407.078 442.462Z" fill="#F27522"/>
<path d="M610.701 442.227C588.195 528.147 524.925 591.383 529.892 555.121C536.552 506.494 549.172 434.187 508.366 394.476C477.504 364.442 520.117 287.065 555.12 299.847C561.226 293.488 626.915 341.79 647.511 348.214C654.341 337.812 702.052 353.065 722.834 360.325C747.881 365.109 780.766 429.209 780.766 429.209C793.002 554.781 687.084 607.824 691.163 572.369C717.035 528.386 733.421 505.882 717.035 461.118C703.236 525.718 649.775 581.857 652.354 559.433C662.703 517.175 674.777 468.799 668.74 429.209C654.941 504.239 585.025 583.32 587.673 559.433C589.957 538.831 619.582 488.715 610.701 442.227Z" fill="#F27522"/>
<path d="M508.55 392.987C467.745 432.698 481.227 506.73 487.887 555.357C492.854 591.619 429.584 528.383 407.077 442.462C398.197 488.951 427.822 539.067 430.106 559.669C432.754 583.556 362.838 504.475 349.039 429.445C343.002 469.034 355.076 517.411 365.425 559.669C368.004 582.092 314.543 530.029 300.744 465.43C284.358 510.194 293.81 529.248 326.616 572.605C330.695 608.06 224.777 555.017 237.013 429.445" stroke="black" stroke-width="12.8" stroke-linecap="round" stroke-linejoin="round"/>
<path d="M509.229 392.751C550.034 432.462 536.552 506.493 529.892 555.121C524.925 591.383 588.195 528.146 610.702 442.226C619.583 488.715 589.957 538.831 587.673 559.433C585.026 583.32 654.941 504.238 668.74 429.209C674.777 468.798 662.703 517.175 652.354 559.433C649.775 581.856 703.236 529.167 717.035 464.567C733.421 509.331 717.035 528.386 691.163 572.369C687.084 607.824 793.002 554.781 780.766 429.209" stroke="black" stroke-width="12.8" stroke-linecap="round" stroke-linejoin="round"/>
<path d="M441.282 623.981C441.282 642.007 433.727 662.06 407.648 662.06C381.57 662.06 374.014 642.007 374.014 623.981C374.014 605.955 389.073 591.342 407.648 591.342C426.224 591.342 441.282 605.955 441.282 623.981Z" fill="black"/>
<path d="M577.543 623.981C577.543 642.007 585.099 662.06 611.177 662.06C637.256 662.06 644.811 642.007 644.811 623.981C644.811 605.955 629.753 591.342 611.177 591.342C592.602 591.342 577.543 605.955 577.543 623.981Z" fill="black"/>
<path d="M612.04 715.529C612.04 724.136 609.296 732.659 603.965 740.611C598.634 748.564 590.821 755.789 580.971 761.875C571.12 767.962 559.427 772.789 546.557 776.083C533.687 779.377 519.893 781.072 505.963 781.072C492.033 781.072 478.239 779.377 465.369 776.083C452.5 772.789 440.806 767.962 430.956 761.875C421.105 755.789 413.292 748.564 407.961 740.611C402.63 732.659 399.886 715.529 399.886 715.529L612.04 715.529Z" fill="black"/>
<mask id="mask0_1_33" style="mask-type:alpha" maskUnits="userSpaceOnUse" x="417" y="729" width="177" height="108">
<ellipse cx="505.101" cy="782.797" rx="87.966" ry="53.4695" fill="#E65240"/>
</mask>
<g mask="url(#mask0_1_33)">
<path d="M612.04 715.53C612.04 724.137 609.296 732.66 603.965 740.612C598.634 748.564 590.821 755.79 580.971 761.876C571.12 767.962 559.427 772.79 546.557 776.084C533.687 779.378 519.893 781.073 505.963 781.073C492.033 781.073 478.239 779.378 465.369 776.084C452.5 772.79 440.806 767.962 430.956 761.876C421.105 755.79 413.292 748.564 407.961 740.612C402.63 732.66 399.886 715.53 399.886 715.53L612.04 715.53Z" fill="#FF8070"/>
</g>
</g>
<defs>
<linearGradient id="paint0_linear_1_33" x1="512" y1="0" x2="512" y2="1024" gradientUnits="userSpaceOnUse">
<stop stop-color="#91FDFF"/>
<stop offset="1" stop-color="#0084FD"/>
</linearGradient>
<clipPath id="clip0_1_33">
<rect width="1024" height="1024" fill="white"/>
</clipPath>
</defs>
</svg>
