<svg width="386" height="394" viewBox="0 0 386 394" fill="none" xmlns="http://www.w3.org/2000/svg">
<mask id="path-1-outside-1_6_124" maskUnits="userSpaceOnUse" x="0.492188" y="0" width="386" height="394" fill="black">
<rect fill="white" x="0.492188" width="386" height="394"/>
<path fill-rule="evenodd" clip-rule="evenodd" d="M24.5038 115.158C9.77843 156.851 15.3337 196.53 20.2209 217.197C12.7185 225.749 9.54174 238.316 10.7376 252.015C12.8018 275.661 30.3909 297.812 54.1416 295.739C57.812 295.418 61.0573 294.577 63.9135 293.298C79.363 343.109 117.021 384 193 384C268.979 384 306.637 343.109 322.086 293.298C324.943 294.577 328.188 295.418 331.858 295.739C355.609 297.812 373.198 275.661 375.262 252.015C376.58 236.919 372.588 223.198 363.349 214.709C368.066 193.451 372.651 155.235 358.496 115.158C337.112 54.6124 281.108 9.99999 191.5 10C101.892 9.99999 45.8875 54.6124 24.5038 115.158Z"/>
</mask>
<path d="M20.2209 217.197L27.7381 223.792L31.1393 219.915L29.9525 214.896L20.2209 217.197ZM24.5038 115.158L33.933 118.488L33.933 118.488L24.5038 115.158ZM10.7376 252.015L0.77548 252.884L0.775481 252.884L10.7376 252.015ZM54.1416 295.739L53.272 285.777L53.272 285.777L54.1416 295.739ZM63.9135 293.298L73.4646 290.335L70.1219 279.558L59.8243 284.172L63.9135 293.298ZM322.086 293.298L326.176 284.172L315.878 279.558L312.535 290.335L322.086 293.298ZM331.858 295.739L332.728 285.777L332.728 285.777L331.858 295.739ZM375.262 252.015L365.3 251.145L365.3 251.145L375.262 252.015ZM363.349 214.709L353.587 212.543L352.338 218.172L356.584 222.073L363.349 214.709ZM358.496 115.158L349.067 118.488L349.067 118.488L358.496 115.158ZM191.5 10L191.5 20L191.5 20L191.5 10ZM29.9525 214.896C25.2854 195.159 20.1054 157.639 33.933 118.488L15.0746 111.828C-0.548554 156.063 5.38203 197.9 10.4892 219.498L29.9525 214.896ZM20.6997 251.145C19.6667 239.311 22.5301 229.728 27.7381 223.792L12.7036 210.602C2.90692 221.769 -0.583185 237.32 0.77548 252.884L20.6997 251.145ZM53.272 285.777C45.0006 286.499 37.5563 283.112 31.6449 276.728C25.6295 270.231 21.5521 260.909 20.6997 251.145L0.775481 252.884C1.98735 266.767 7.73662 280.344 16.9695 290.316C26.3064 300.4 39.5319 307.052 55.0113 305.701L53.272 285.777ZM59.8243 284.172C58.0741 284.956 55.9292 285.545 53.272 285.777L55.0112 305.701C59.6948 305.292 64.0404 304.199 68.0027 302.423L59.8243 284.172ZM193 374C156.889 374 130.762 364.322 111.953 349.478C93.0634 334.57 80.7454 313.809 73.4646 290.335L54.3624 296.26C62.5311 322.597 76.767 347.187 99.5632 365.178C122.44 383.232 153.132 394 193 394V374ZM312.535 290.335C305.255 313.809 292.937 334.57 274.047 349.478C255.238 364.322 229.111 374 193 374V394C232.868 394 263.559 383.232 286.437 365.178C309.233 347.187 323.469 322.597 331.638 296.26L312.535 290.335ZM332.728 285.777C330.071 285.545 327.926 284.956 326.176 284.172L317.997 302.423C321.959 304.199 326.305 305.292 330.989 305.701L332.728 285.777ZM365.3 251.145C364.448 260.909 360.37 270.231 354.355 276.728C348.444 283.112 340.999 286.499 332.728 285.777L330.989 305.701C346.468 307.052 359.694 300.4 369.03 290.316C378.263 280.344 384.013 266.767 385.224 252.884L365.3 251.145ZM356.584 222.073C362.843 227.824 366.442 238.063 365.3 251.145L385.224 252.884C386.718 235.775 382.333 218.571 370.115 207.345L356.584 222.073ZM349.067 118.488C362.355 156.113 358.092 192.237 353.587 212.543L373.112 216.876C378.04 194.664 382.946 154.358 367.925 111.828L349.067 118.488ZM191.5 20C277.271 20 329.224 62.3063 349.067 118.488L367.925 111.828C345 46.9185 284.944 -1.41289e-05 191.5 0L191.5 20ZM33.933 118.488C53.7755 62.3063 105.729 20 191.5 20L191.5 0C98.0557 -1.41289e-05 37.9995 46.9185 15.0746 111.828L33.933 118.488Z" fill="black" mask="url(#path-1-outside-1_6_124)"/>
<path d="M357.084 230H191.5H25.9156C25.8036 229.673 25.6733 229.286 25.5274 228.84C24.9948 227.214 24.2536 224.813 23.4284 221.739C21.7777 215.589 19.7931 206.752 18.4699 196.038C15.822 174.599 15.8311 145.719 26.3897 115.824C47.4651 56.1512 102.66 12 191.5 12C280.34 12 335.535 56.1512 356.61 115.824C367.169 145.719 367.178 174.599 364.53 196.038C363.207 206.752 361.222 215.589 359.572 221.739C358.746 224.813 358.005 227.214 357.473 228.84C357.327 229.286 357.196 229.673 357.084 230Z" fill="#F27522" stroke="black" stroke-width="4"/>
<path d="M79.784 246.333C80.8012 257.986 79.8163 269.469 75.8208 278.207C71.8844 286.815 65.0394 292.78 53.9677 293.746C42.8132 294.72 33.0563 290.027 25.7748 282.163C18.4724 274.276 13.7262 263.252 12.73 251.841C11.7268 240.348 13.9068 229.847 19.053 222.028C24.1618 214.266 32.2835 208.999 43.5623 208.015C54.8124 207.033 63.2627 210.912 69.2045 217.757C75.2124 224.677 78.7753 234.778 79.784 246.333Z" fill="white" stroke="black" stroke-width="4"/>
<path d="M46.9994 264.573C39.432 265.234 33.8278 258.176 33.1701 250.642C32.5124 243.108 33.1701 233.281 43.5732 235.988C53.0954 241.62 43.5732 252.86 36.4167 246.696" stroke="black" stroke-width="4"/>
<path d="M79.784 246.333C80.8012 257.986 79.8163 269.469 75.8208 278.207C71.8844 286.815 65.0394 292.78 53.9677 293.746C42.8132 294.72 33.0563 290.027 25.7748 282.163C18.4724 274.276 13.7262 263.252 12.73 251.841C11.7268 240.348 13.9068 229.847 19.053 222.028C24.1618 214.266 32.2835 208.999 43.5623 208.015C54.8124 207.033 63.2627 210.912 69.2045 217.757C75.2124 224.677 78.7753 234.778 79.784 246.333Z" fill="#F5C885" fill-opacity="0.67" stroke="black" stroke-width="4"/>
<path d="M46.9994 264.573C39.432 265.234 33.8278 258.176 33.1701 250.642C32.5124 243.108 33.1701 233.281 43.5732 235.988C53.0954 241.62 43.5732 252.86 36.4167 246.696" stroke="black" stroke-width="4"/>
<path d="M306.216 246.333C305.199 257.986 306.184 269.469 310.179 278.207C314.116 286.815 320.961 292.78 332.032 293.746C343.187 294.72 352.944 290.027 360.225 282.163C367.528 274.276 372.274 263.252 373.27 251.841C374.273 240.348 372.093 229.847 366.947 222.028C361.838 214.266 353.716 208.999 342.438 208.015C331.188 207.033 322.737 210.912 316.795 217.757C310.788 224.677 307.225 234.778 306.216 246.333Z" fill="#F8DAAD" stroke="black" stroke-width="4"/>
<path d="M339.001 264.573C346.568 265.234 352.172 258.176 352.83 250.642C353.488 243.108 352.83 233.281 342.427 235.988C332.905 241.62 342.427 252.86 349.583 246.696" stroke="black" stroke-width="4"/>
<path d="M329 230C329 266.218 321.292 304.248 300.501 333.171C279.787 361.986 245.919 382 193 382C140.081 382 106.213 361.986 85.499 333.171C64.7082 304.248 57 266.218 57 230C57 158.286 117.805 100 193 100C268.195 100 329 158.286 329 230Z" fill="#F8DAAD" stroke="black" stroke-width="4"/>
<path d="M134.169 157.684C147.218 207.498 183.9 244.161 181.02 223.137C177.159 194.944 169.842 153.023 193.5 130C211.393 112.587 191.794 70.5892 171.5 78C167.961 74.313 124.769 99.4541 112.829 103.178C108.868 97.1479 81.2073 105.991 69.1585 110.2C54.6366 112.974 36 150.137 36 150.137C28.9062 222.94 89.8849 253.693 87.5205 233.137C69.1585 210 66.5 205.5 72.5205 171.5C83 206.5 111.516 238.637 110.021 225.637C104.021 201.137 97.0205 173.09 100.521 150.137C108.521 193.637 149.056 239.486 147.521 225.637C146.197 213.692 129.021 184.637 134.169 157.684Z" fill="#F27522"/>
<path d="M252.224 157.547C239.176 207.361 202.494 244.024 205.373 223C209.235 194.807 216.551 152.886 192.893 129.863C175 112.45 199.706 67.5892 220 75C223.54 71.313 261.624 99.3173 273.565 103.042C277.525 97.0111 305.186 105.854 317.235 110.063C331.757 112.837 350.823 150 350.823 150C357.916 222.803 296.509 253.556 298.873 233C313.873 207.5 323.373 194.453 313.873 168.5C305.873 205.953 274.878 238.5 276.373 225.5C282.373 201 289.373 172.953 285.873 150C277.873 193.5 237.338 239.349 238.873 225.5C240.197 213.556 257.373 184.5 252.224 157.547Z" fill="#F27522"/>
<path d="M193 129C169.342 152.023 177.159 194.944 181.02 223.137C183.9 244.161 147.218 207.498 134.169 157.684C129.02 184.637 146.196 213.692 147.52 225.637C149.055 239.486 108.52 193.637 100.52 150.137C97.0203 173.09 104.02 201.137 110.02 225.637C111.516 238.637 80.5204 208.453 72.5204 171C63.0204 196.953 68.5 208 87.5204 233.137C89.8847 253.693 28.4771 222.94 35.5709 150.137" stroke="black" stroke-width="4" stroke-linecap="round" stroke-linejoin="round"/>
<path d="M193.393 128.863C217.051 151.886 209.235 194.807 205.373 223C202.494 244.024 239.176 207.361 252.224 157.547C257.373 184.5 240.197 213.555 238.873 225.5C237.338 239.349 277.873 193.5 285.873 150C289.373 172.953 282.373 201 276.373 225.5C274.878 238.5 305.873 207.953 313.873 170.5C323.373 196.453 313.873 207.5 298.873 233C296.509 253.556 357.916 222.803 350.823 150" stroke="black" stroke-width="4" stroke-linecap="round" stroke-linejoin="round"/>
<path d="M154 262.923C154 273.374 149.62 285 134.5 285C119.38 285 115 273.374 115 262.923C115 252.472 123.73 244 134.5 244C145.27 244 154 252.472 154 262.923Z" fill="black"/>
<path d="M233 262.923C233 273.374 237.38 285 252.5 285C267.62 285 272 273.374 272 262.923C272 252.472 263.27 244 252.5 244C241.73 244 233 252.472 233 262.923Z" fill="black"/>
<path d="M253 316C253 320.99 251.409 325.932 248.319 330.542C245.228 335.152 240.698 339.341 234.987 342.87C229.276 346.399 222.497 349.198 215.035 351.107C207.574 353.017 199.576 354 191.5 354C183.424 354 175.426 353.017 167.965 351.107C160.503 349.198 153.724 346.399 148.013 342.87C142.302 339.341 137.772 335.152 134.681 330.542C131.591 325.932 130 316 130 316L253 316Z" fill="black"/>
<mask id="mask0_6_124" style="mask-type:alpha" maskUnits="userSpaceOnUse" x="140" y="324" width="102" height="62">
<ellipse cx="191" cy="355" rx="51" ry="31" fill="#E65240"/>
</mask>
<g mask="url(#mask0_6_124)">
<path d="M253 316C253 320.99 251.409 325.932 248.319 330.542C245.228 335.152 240.698 339.341 234.987 342.87C229.276 346.399 222.497 349.198 215.035 351.107C207.574 353.017 199.576 354 191.5 354C183.424 354 175.426 353.017 167.965 351.107C160.503 349.198 153.724 346.399 148.013 342.87C142.302 339.341 137.772 335.152 134.681 330.542C131.591 325.932 130 316 130 316L253 316Z" fill="#FF8070"/>
</g>
</svg>
