<svg width="776" height="776" viewBox="0 0 776 776" fill="none" xmlns="http://www.w3.org/2000/svg">
<path fill-rule="evenodd" clip-rule="evenodd" d="M178.111 285.77C159.74 337.783 166.671 387.284 172.768 413.067C163.408 423.736 159.445 439.413 160.937 456.503C163.512 486.003 185.455 513.637 215.085 511.05C219.664 510.65 223.712 509.602 227.276 508.005C246.549 570.146 293.529 621.159 388.315 621.159C483.101 621.159 530.081 570.146 549.355 508.005C552.918 509.602 556.967 510.65 561.546 511.05C591.176 513.637 613.119 486.003 615.694 456.503C617.338 437.67 612.358 420.553 600.832 409.963C606.717 383.443 612.436 335.767 594.777 285.77C568.101 210.237 498.233 154.582 386.444 154.582C274.655 154.582 204.788 210.237 178.111 285.77Z" fill="black"/>
</svg>
