<svg width="428" height="448" viewBox="0 0 428 448" fill="none" xmlns="http://www.w3.org/2000/svg">
<mask id="path-1-outside-1_8_30" maskUnits="userSpaceOnUse" x="1.49219" y="7" width="426" height="434" fill="black">
<rect fill="white" x="1.49219" y="7" width="426" height="434"/>
<path fill-rule="evenodd" clip-rule="evenodd" d="M45.5039 142.158C30.7785 183.851 36.3337 223.53 41.2209 244.197C33.7185 252.749 30.5418 265.316 31.7376 279.015C33.8019 302.661 51.391 324.812 75.1416 322.739C78.8121 322.418 82.0573 321.577 84.9135 320.298C100.363 370.109 138.021 411 214 411C289.979 411 327.637 370.109 343.086 320.298C345.943 321.577 349.188 322.418 352.858 322.739C376.609 324.812 394.198 302.661 396.262 279.015C397.58 263.919 393.588 250.198 384.349 241.709C389.066 220.451 393.651 182.235 379.496 142.158C358.113 81.6124 302.108 37 212.5 37C122.892 37 66.8875 81.6124 45.5039 142.158Z"/>
</mask>
<path d="M41.2209 244.197L63.7727 263.981L73.9763 252.35L70.4157 237.293L41.2209 244.197ZM45.5039 142.158L73.7914 152.149L73.7914 152.149L45.5039 142.158ZM31.7376 279.015L1.85128 281.624L1.85128 281.624L31.7376 279.015ZM75.1416 322.739L72.5328 292.852L72.5327 292.852L75.1416 322.739ZM84.9135 320.298L113.567 311.41L103.539 279.078L72.6461 292.92L84.9135 320.298ZM343.086 320.298L355.354 292.92L324.461 279.078L314.433 311.41L343.086 320.298ZM352.858 322.739L355.467 292.852L355.467 292.852L352.858 322.739ZM396.262 279.015L366.376 276.406L366.376 276.406L396.262 279.015ZM384.349 241.709L355.062 235.21L351.314 252.097L364.052 263.801L384.349 241.709ZM379.496 142.158L351.209 152.149L351.209 152.149L379.496 142.158ZM212.5 37L212.5 67L212.5 67L212.5 37ZM70.4157 237.293C66.1888 219.418 61.7594 186.216 73.7914 152.149L17.2163 132.167C-0.20249 181.486 6.47871 227.642 12.026 251.101L70.4157 237.293ZM61.624 276.406C60.9165 268.302 63.1534 264.687 63.7727 263.981L18.6691 224.413C4.28374 240.81 0.166995 262.329 1.85128 281.624L61.624 276.406ZM72.5327 292.852C71.4693 292.945 69.8062 292.824 67.3204 290.14C64.5224 287.118 62.1168 282.052 61.624 276.406L1.85128 281.624C3.42264 299.624 10.8438 317.457 23.2941 330.903C36.0566 344.687 55.0633 354.605 77.7506 352.625L72.5327 292.852ZM72.6461 292.92C72.7492 292.874 72.8345 292.842 72.8978 292.82C72.9609 292.798 72.9962 292.789 72.9992 292.788C73.0078 292.786 72.8636 292.823 72.5328 292.852L77.7505 352.625C84.4605 352.039 91.0068 350.441 97.181 347.675L72.6461 292.92ZM214 381C181.647 381 160.084 372.412 145.344 360.778C130.36 348.953 119.96 332.021 113.567 311.41L56.2601 329.185C65.3169 358.385 81.4706 386.804 108.173 407.878C135.119 429.143 170.374 441 214 441V381ZM314.433 311.41C308.04 332.021 297.64 348.953 282.656 360.778C267.916 372.412 246.353 381 214 381V441C257.626 441 292.881 429.143 319.827 407.878C346.529 386.804 362.683 358.385 371.74 329.185L314.433 311.41ZM355.467 292.852C355.137 292.823 354.992 292.786 355.001 292.788C355.004 292.789 355.039 292.798 355.102 292.82C355.166 292.842 355.251 292.874 355.354 292.92L330.819 347.675C336.993 350.441 343.539 352.039 350.249 352.625L355.467 292.852ZM366.376 276.406C365.883 282.052 363.478 287.118 360.68 290.14C358.194 292.824 356.531 292.945 355.467 292.852L350.249 352.625C372.937 354.605 391.943 344.687 404.706 330.903C417.156 317.457 424.577 299.624 426.149 281.624L366.376 276.406ZM364.052 263.801C364.354 264.078 367.166 267.351 366.376 276.406L426.149 281.624C427.994 260.486 422.822 236.317 404.646 219.618L364.052 263.801ZM351.209 152.149C362.765 184.868 359.145 216.81 355.062 235.21L413.637 248.208C418.988 224.092 424.537 179.602 407.784 132.167L351.209 152.149ZM212.5 67C290.598 67 334.449 104.694 351.209 152.149L407.784 132.167C381.777 58.5306 313.618 6.99998 212.5 7L212.5 67ZM73.7914 152.149C90.5515 104.694 134.402 67 212.5 67L212.5 7C111.382 6.99998 43.2235 58.5306 17.2163 132.167L73.7914 152.149Z" fill="white" mask="url(#path-1-outside-1_8_30)"/>
<mask id="path-3-outside-2_8_30" maskUnits="userSpaceOnUse" x="21.4922" y="27" width="386" height="394" fill="black">
<rect fill="white" x="21.4922" y="27" width="386" height="394"/>
<path fill-rule="evenodd" clip-rule="evenodd" d="M45.5038 142.158C30.7784 183.851 36.3337 223.53 41.2209 244.197C33.7185 252.749 30.5417 265.316 31.7376 279.015C33.8018 302.661 51.3909 324.812 75.1416 322.739C78.812 322.418 82.0573 321.577 84.9135 320.298C100.363 370.109 138.021 411 214 411C289.979 411 327.637 370.109 343.086 320.298C345.943 321.577 349.188 322.418 352.858 322.739C376.609 324.812 394.198 302.661 396.262 279.015C397.58 263.919 393.588 250.198 384.349 241.709C389.066 220.451 393.651 182.235 379.496 142.158C358.112 81.6124 302.108 37 212.5 37C122.892 37 66.8875 81.6124 45.5038 142.158Z"/>
</mask>
<path d="M41.2209 244.197L48.7381 250.792L52.1393 246.915L50.9525 241.896L41.2209 244.197ZM45.5038 142.158L54.933 145.488L54.933 145.488L45.5038 142.158ZM31.7376 279.015L21.7755 279.884L21.7755 279.884L31.7376 279.015ZM75.1416 322.739L74.272 312.777L74.272 312.777L75.1416 322.739ZM84.9135 320.298L94.4646 317.335L91.1219 306.558L80.8243 311.172L84.9135 320.298ZM343.086 320.298L347.176 311.172L336.878 306.558L333.535 317.335L343.086 320.298ZM352.858 322.739L353.728 312.777L353.728 312.777L352.858 322.739ZM396.262 279.015L386.3 278.145L386.3 278.145L396.262 279.015ZM384.349 241.709L374.587 239.543L373.338 245.172L377.584 249.073L384.349 241.709ZM379.496 142.158L370.067 145.488L370.067 145.488L379.496 142.158ZM212.5 37L212.5 47L212.5 47L212.5 37ZM50.9525 241.896C46.2854 222.159 41.1054 184.639 54.933 145.488L36.0746 138.828C20.4514 183.063 26.382 224.9 31.4892 246.498L50.9525 241.896ZM41.6997 278.145C40.6667 266.311 43.5301 256.728 48.7381 250.792L33.7036 237.602C23.9069 248.769 20.4168 264.32 21.7755 279.884L41.6997 278.145ZM74.272 312.777C66.0006 313.499 58.5563 310.112 52.6449 303.728C46.6295 297.231 42.5521 287.909 41.6997 278.145L21.7755 279.884C22.9873 293.767 28.7366 307.344 37.9695 317.316C47.3064 327.4 60.5319 334.052 76.0113 332.701L74.272 312.777ZM80.8243 311.172C79.0741 311.956 76.9292 312.545 74.272 312.777L76.0112 332.701C80.6948 332.292 85.0404 331.199 89.0027 329.423L80.8243 311.172ZM214 401C177.889 401 151.762 391.322 132.953 376.478C114.063 361.57 101.745 340.809 94.4646 317.335L75.3624 323.26C83.5311 349.597 97.767 374.187 120.563 392.178C143.44 410.232 174.132 421 214 421V401ZM333.535 317.335C326.255 340.809 313.937 361.57 295.047 376.478C276.238 391.322 250.111 401 214 401V421C253.868 421 284.559 410.232 307.437 392.178C330.233 374.187 344.469 349.597 352.638 323.26L333.535 317.335ZM353.728 312.777C351.071 312.545 348.926 311.956 347.176 311.172L338.997 329.423C342.959 331.199 347.305 332.292 351.989 332.701L353.728 312.777ZM386.3 278.145C385.448 287.909 381.37 297.231 375.355 303.728C369.444 310.112 361.999 313.499 353.728 312.777L351.989 332.701C367.468 334.052 380.694 327.4 390.03 317.316C399.263 307.344 405.013 293.767 406.224 279.884L386.3 278.145ZM377.584 249.073C383.843 254.824 387.442 265.063 386.3 278.145L406.224 279.884C407.718 262.775 403.333 245.571 391.115 234.345L377.584 249.073ZM370.067 145.488C383.355 183.113 379.092 219.237 374.587 239.543L394.112 243.876C399.04 221.664 403.946 181.358 388.925 138.828L370.067 145.488ZM212.5 47C298.271 47 350.224 89.3063 370.067 145.488L388.925 138.828C366 73.9185 305.944 27 212.5 27L212.5 47ZM54.933 145.488C74.7755 89.3063 126.729 47 212.5 47L212.5 27C119.056 27 58.9995 73.9185 36.0746 138.828L54.933 145.488Z" fill="black" mask="url(#path-3-outside-2_8_30)"/>
<path d="M378.084 257H212.5H46.9156C46.8036 256.673 46.6733 256.286 46.5274 255.84C45.9948 254.214 45.2536 251.813 44.4284 248.739C42.7777 242.589 40.7931 233.752 39.4699 223.038C36.822 201.599 36.8311 172.719 47.3897 142.824C68.4651 83.1512 123.66 39 212.5 39C301.34 39 356.535 83.1512 377.61 142.824C388.169 172.719 388.178 201.599 385.53 223.038C384.207 233.752 382.222 242.589 380.572 248.739C379.746 251.813 379.005 254.214 378.473 255.84C378.327 256.286 378.196 256.673 378.084 257Z" fill="#F27522" stroke="black" stroke-width="4"/>
<path d="M100.784 273.333C101.801 284.986 100.816 296.469 96.8208 305.207C92.8844 313.815 86.0394 319.78 74.9677 320.746C63.8132 321.72 54.0563 317.027 46.7748 309.163C39.4724 301.276 34.7262 290.252 33.73 278.841C32.7268 267.348 34.9068 256.847 40.053 249.028C45.1618 241.266 53.2835 235.999 64.5623 235.015C75.8124 234.033 84.2627 237.912 90.2045 244.757C96.2124 251.677 99.7753 261.778 100.784 273.333Z" fill="white" stroke="black" stroke-width="4"/>
<path d="M67.9994 291.573C60.432 292.234 54.8278 285.176 54.1701 277.642C53.5124 270.108 54.1701 260.281 64.5732 262.988C74.0954 268.62 64.5732 279.86 57.4167 273.696" stroke="black" stroke-width="4"/>
<path d="M100.784 273.333C101.801 284.986 100.816 296.469 96.8208 305.207C92.8844 313.815 86.0394 319.78 74.9677 320.746C63.8132 321.72 54.0563 317.027 46.7748 309.163C39.4724 301.276 34.7262 290.252 33.73 278.841C32.7268 267.348 34.9068 256.847 40.053 249.028C45.1618 241.266 53.2835 235.999 64.5623 235.015C75.8124 234.033 84.2627 237.912 90.2045 244.757C96.2124 251.677 99.7753 261.778 100.784 273.333Z" fill="#F5C885" fill-opacity="0.67" stroke="black" stroke-width="4"/>
<path d="M67.9994 291.573C60.432 292.234 54.8278 285.176 54.1701 277.642C53.5124 270.108 54.1701 260.281 64.5732 262.988C74.0954 268.62 64.5732 279.86 57.4167 273.696" stroke="black" stroke-width="4"/>
<path d="M327.216 273.333C326.199 284.986 327.184 296.469 331.179 305.207C335.116 313.815 341.961 319.78 353.032 320.746C364.187 321.72 373.944 317.027 381.225 309.163C388.528 301.276 393.274 290.252 394.27 278.841C395.273 267.348 393.093 256.847 387.947 249.028C382.838 241.266 374.716 235.999 363.438 235.015C352.188 234.033 343.737 237.912 337.795 244.757C331.788 251.677 328.225 261.778 327.216 273.333Z" fill="#F8DAAD" stroke="black" stroke-width="4"/>
<path d="M360.001 291.573C367.568 292.234 373.172 285.176 373.83 277.642C374.488 270.108 373.83 260.281 363.427 262.988C353.905 268.62 363.427 279.86 370.583 273.696" stroke="black" stroke-width="4"/>
<path d="M350 257C350 293.218 342.292 331.248 321.501 360.171C300.787 388.986 266.919 409 214 409C161.081 409 127.213 388.986 106.499 360.171C85.7082 331.248 78 293.218 78 257C78 185.286 138.805 127 214 127C289.195 127 350 185.286 350 257Z" fill="#F8DAAD" stroke="black" stroke-width="4"/>
<path d="M155.169 184.684C168.218 234.498 204.9 271.161 202.02 250.137C198.159 221.944 190.842 180.023 214.5 157C232.393 139.587 212.794 97.5892 192.5 105C188.961 101.313 145.769 126.454 133.829 130.178C129.868 124.148 102.207 132.991 90.1585 137.2C75.6366 139.974 57 177.137 57 177.137C49.9062 249.94 110.885 280.693 108.521 260.137C90.1585 237 87.5 232.5 93.5205 198.5C104 233.5 132.516 265.637 131.021 252.637C125.021 228.137 118.021 200.09 121.521 177.137C129.521 220.637 170.056 266.486 168.521 252.637C167.197 240.692 150.021 211.637 155.169 184.684Z" fill="#F27522"/>
<path d="M273.224 184.547C260.176 234.361 223.494 271.024 226.373 250C230.235 221.807 237.551 179.886 213.893 156.863C196 139.45 220.706 94.5892 241 102C244.54 98.313 282.624 126.317 294.565 130.042C298.525 124.011 326.186 132.854 338.235 137.063C352.757 139.837 371.823 177 371.823 177C378.916 249.803 317.509 280.556 319.873 260C334.873 234.5 344.373 221.453 334.873 195.5C326.873 232.953 295.878 265.5 297.373 252.5C303.373 228 310.373 199.953 306.873 177C298.873 220.5 258.338 266.349 259.873 252.5C261.197 240.556 278.373 211.5 273.224 184.547Z" fill="#F27522"/>
<path d="M214 156C190.342 179.023 198.159 221.944 202.02 250.137C204.9 271.161 168.218 234.498 155.169 184.684C150.02 211.637 167.196 240.692 168.52 252.637C170.055 266.486 129.52 220.637 121.52 177.137C118.02 200.09 125.02 228.137 131.02 252.637C132.516 265.637 101.52 235.453 93.5204 198C84.0204 223.953 89.5 235 108.52 260.137C110.885 280.693 49.4771 249.94 56.5709 177.137" stroke="black" stroke-width="4" stroke-linecap="round" stroke-linejoin="round"/>
<path d="M214.393 155.863C238.051 178.886 230.235 221.807 226.373 250C223.494 271.024 260.176 234.361 273.224 184.547C278.373 211.5 261.197 240.555 259.873 252.5C258.338 266.349 298.873 220.5 306.873 177C310.373 199.953 303.373 228 297.373 252.5C295.878 265.5 326.873 234.953 334.873 197.5C344.373 223.453 334.873 234.5 319.873 260C317.509 280.556 378.916 249.803 371.823 177" stroke="black" stroke-width="4" stroke-linecap="round" stroke-linejoin="round"/>
<path d="M175 289.923C175 300.374 170.62 312 155.5 312C140.38 312 136 300.374 136 289.923C136 279.472 144.73 271 155.5 271C166.27 271 175 279.472 175 289.923Z" fill="black"/>
<path d="M254 289.923C254 300.374 258.38 312 273.5 312C288.62 312 293 300.374 293 289.923C293 279.472 284.27 271 273.5 271C262.73 271 254 279.472 254 289.923Z" fill="black"/>
<path d="M274 343C274 347.99 272.409 352.932 269.319 357.542C266.228 362.152 261.698 366.341 255.987 369.87C250.276 373.399 243.497 376.198 236.035 378.107C228.574 380.017 220.576 381 212.5 381C204.424 381 196.426 380.017 188.965 378.107C181.503 376.198 174.724 373.399 169.013 369.87C163.302 366.341 158.772 362.152 155.681 357.542C152.591 352.932 151 343 151 343L274 343Z" fill="black"/>
<mask id="mask0_8_30" style="mask-type:alpha" maskUnits="userSpaceOnUse" x="161" y="351" width="102" height="62">
<ellipse cx="212" cy="382" rx="51" ry="31" fill="#E65240"/>
</mask>
<g mask="url(#mask0_8_30)">
<path d="M274 343C274 347.99 272.409 352.932 269.319 357.542C266.228 362.152 261.698 366.341 255.987 369.87C250.276 373.399 243.497 376.198 236.035 378.107C228.574 380.017 220.576 381 212.5 381C204.424 381 196.426 380.017 188.965 378.107C181.503 376.198 174.724 373.399 169.013 369.87C163.302 366.341 158.772 362.152 155.681 357.542C152.591 352.932 151 343 151 343L274 343Z" fill="#FF8070"/>
</g>
</svg>
